<?xml version="1.0" encoding="UTF-8" standalone="no"?>
<svg
   id="svg1541"
   version="1.1"
   viewBox="0 0 47.110687 10.135807"
   height="10.135806mm"
   width="47.110687mm"
   sodipodi:docname="wf_logo_dark.svg"
   inkscape:version="1.3.2 (091e20e, 2023-11-25, custom)"
   xmlns:inkscape="http://www.inkscape.org/namespaces/inkscape"
   xmlns:sodipodi="http://sodipodi.sourceforge.net/DTD/sodipodi-0.dtd"
   xmlns="http://www.w3.org/2000/svg"
   xmlns:svg="http://www.w3.org/2000/svg"
   xmlns:rdf="http://www.w3.org/1999/02/22-rdf-syntax-ns#"
   xmlns:cc="http://creativecommons.org/ns#"
   xmlns:dc="http://purl.org/dc/elements/1.1/">
  <sodipodi:namedview
     id="namedview1"
     pagecolor="#ffffff"
     bordercolor="#666666"
     borderopacity="1.0"
     inkscape:showpageshadow="2"
     inkscape:pageopacity="0.0"
     inkscape:pagecheckerboard="0"
     inkscape:deskcolor="#d1d1d1"
     inkscape:document-units="mm"
     inkscape:zoom="8.7429819"
     inkscape:cx="81.72269"
     inkscape:cy="26.364003"
     inkscape:window-width="3840"
     inkscape:window-height="2089"
     inkscape:window-x="-8"
     inkscape:window-y="162"
     inkscape:window-maximized="1"
     inkscape:current-layer="g3" />
  <defs
     id="defs1535" />
  <metadata
     id="metadata1538">
    <rdf:RDF>
      <cc:Work
         rdf:about="">
        <dc:format>image/svg+xml</dc:format>
        <dc:type
           rdf:resource="http://purl.org/dc/dcmitype/StillImage" />
      </cc:Work>
    </rdf:RDF>
  </metadata>
  <g
     id="g2"
     transform="matrix(0.92315162,0,0,0.92315162,-0.19378337,-1.8261074)"
     inkscape:export-filename="wingflight_logo_gray_full.png"
     inkscape:export-xdpi="800"
     inkscape:export-ydpi="800"
     inkscape:label="logo">
    <g
       id="g3"
       inkscape:label="flight">
      <path
         id="path3150-69"
         style="font-style:italic;font-variant:normal;font-weight:900;font-stretch:normal;font-size:6.13982px;line-height:1.25;font-family:'Helvetica Now Text';-inkscape-font-specification:'Helvetica Now Text Heavy Italic';letter-spacing:0px;word-spacing:0px;display:inline;fill:#4e4e4e;fill-opacity:1;stroke:none;stroke-width:0.228084"
         d="m 33.037444,7.4492605 -0.378985,1.2339 h -1.99515 l -0.20782,0.67365 h 1.65603 l -0.35378,1.1672095 h -1.65602 l -0.512671,1.674121 h -1.26605 l 1.44762,-4.7488805 z" />
      <path
         id="path3152-9"
         style="font-style:italic;font-variant:normal;font-weight:900;font-stretch:normal;font-size:6.13982px;line-height:1.25;font-family:'Helvetica Now Text';-inkscape-font-specification:'Helvetica Now Text Heavy Italic';letter-spacing:0px;word-spacing:0px;display:inline;fill:#4e4e4e;fill-opacity:1;stroke:none;stroke-width:0.228084"
         d="m 34.701604,7.4492605 -1.05718,3.4682795 h 1.79732 l -0.39043,1.280601 h -3.063375 l 1.447625,-4.7488805 z" />
      <path
         id="path3154-7"
         style="font-style:italic;font-variant:normal;font-weight:900;font-stretch:normal;font-size:6.13982px;line-height:1.25;font-family:'Helvetica Now Text';-inkscape-font-specification:'Helvetica Now Text Heavy Italic';letter-spacing:0px;word-spacing:0px;display:inline;fill:#4e4e4e;fill-opacity:1;stroke:none;stroke-width:0.228084"
         d="m 36.742314,12.198141 h -1.26604 l 1.44761,-4.7488805 h 1.26605 z"
         sodipodi:nodetypes="ccccc" />
      <path
         id="path3156-7"
         style="font-style:italic;font-variant:normal;font-weight:900;font-stretch:normal;font-size:6.13982px;line-height:1.25;font-family:'Helvetica Now Text';-inkscape-font-specification:'Helvetica Now Text Heavy Italic';letter-spacing:0px;word-spacing:0px;display:inline;fill:#4e4e4e;fill-opacity:1;stroke:none;stroke-width:0.228084"
         d="m 40.454764,9.5835905 h 1.71255 l -0.79313,2.6145505 h -0.84214 l 0.0755,-0.426871 q -0.49581,0.580271 -1.25882,0.580271 -0.71216,0 -1.07876,-0.553591 -0.36659,-0.55359 -0.25417,-1.46068 0.0405,-0.32681 0.1481,-0.6936495 0.32689,-1.08718 1.02465,-1.7008 0.69129,-0.60695 1.57299,-0.60695 0.72911,0 1.15331,0.45355 0.41774,0.46021 0.32434,1.21389 h -1.23778 q -0.0196,-0.48022 -0.49438,-0.48022 -0.35608,0 -0.64444,0.32015 -0.28754,0.31348 -0.46766,0.90042 -0.0921,0.2868095 -0.13008,0.5936095 -0.0529,0.42687 0.0806,0.62696 0.13911,0.20009 0.47823,0.20009 0.54824,0 0.84209,-0.54692 h -0.52563 z" />
      <path
         id="path3158-5"
         style="font-style:italic;font-variant:normal;font-weight:900;font-stretch:normal;font-size:6.13982px;line-height:1.25;font-family:'Helvetica Now Text';-inkscape-font-specification:'Helvetica Now Text Heavy Italic';letter-spacing:0px;word-spacing:0px;display:inline;fill:#4e4e4e;fill-opacity:1;stroke:none;stroke-width:0.228084"
         d="m 45.411304,9.0633405 0.49393,-1.61408 h 1.26604 l -1.44763,4.7488805 h -1.26605 l 0.56326,-1.854201 h -1.13604 l -0.56326,1.854201 h -1.26604 l 1.44762,-4.7488805 h 1.26604 l -0.49393,1.61408 z" />
      <path
         id="path3160-2"
         style="font-style:italic;font-variant:normal;font-weight:900;font-stretch:normal;font-size:6.13982px;line-height:1.25;font-family:'Helvetica Now Text';-inkscape-font-specification:'Helvetica Now Text Heavy Italic';letter-spacing:0px;word-spacing:0px;display:inline;fill:#4e4e4e;fill-opacity:1;stroke:none;stroke-width:0.228084"
         d="m 47.653364,7.4492605 h 3.589 l -0.39044,1.28059 h -1.15865 l -1.05718,3.4682905 h -1.26605 l 1.05719,-3.4682905 h -1.1643 z" />
    </g>
    <g
       id="g1"
       inkscape:label="wing">
      <path
         id="path4-7"
         style="fill:#d40000;fill-opacity:1;stroke:none;stroke-width:0.0540162;stroke-linejoin:round;stroke-dasharray:none;stroke-opacity:1"
         d="M 1.730427,11.7505 2.447636,11.40316 2.058821,9.9339105 c 1.247762,-0.48797 1.838521,-0.65685 3.590805,-1.33399 l 3.287005,4.3577705 c 0,0 0.5733934,-0.25125 0.7866994,-0.3449 0.213362,-0.0937 0.3172526,-0.14063 0.3408896,-0.30212 0.02367,-0.16149 -0.03863,-0.31744 -0.03863,-0.31744 L 8.465817,7.5276805 c 0.132427,-0.0471 0.229399,-0.0799 0.238347,-0.0776 0.10308,0.0278 0.134904,0.13667 0.207001,0.16084 0.07211,0.0241 0.186275,-0.0613 0.213075,-0.15698 0.02684,-0.0957 -0.207376,-0.40855 -0.177964,-0.52152 0.08575,-0.0954 0.5538394,-0.36855 0.464067,-0.57666 -0.105663,-0.20098 -0.622868,-0.0306 -0.753347,-0.0289 -0.107906,-0.0512 -0.202518,-0.4268 -0.295179,-0.46876 -0.09258,-0.042 -0.233571,-0.0125 -0.261162,0.0564 -0.02747,0.0691 0.03746,0.16294 -0.0074,0.25729 -0.0042,0.008 -0.09245,0.0588 -0.215019,0.12651 l -2.504111,-4.04073 c 0,0 -0.08256,-0.14679 -0.224777,-0.23361 -0.142247,-0.0869 -0.246292,-0.0404 -0.457821,0.0573 -0.211492,0.0975 -0.77952,0.3599 -0.77952,0.3599 l 1.303314,5.25039 c -1.664735,0.86043 -2.174818,1.19833 -3.364795,1.80726 L 0.94634399,8.2614705 0.209915,8.5683905 c 0,0 0.64514399,1.4397595 0.61716499,1.4540895 -0.02795,0.0143 -0.02105,0.01 -0.37544699,0.19194 -0.354354,0.18221 -0.206974,0.45506 0.20342499,0.28643 0.41038801,-0.1686 0.271618,-0.12397 0.33037,-0.14699 z m 0.248344,-0.24606 c -0.0073,-0.002 -0.01272,-0.008 -0.01598,-0.0137 L 1.316983,10.233 c -0.0067,-0.0134 -0.0013,-0.0295 0.01291,-0.0358 0.01347,-0.006 0.0298,-0.001 0.03634,0.0124 l 0.645808,1.25825 c 0.0066,0.013 0.0019,0.0289 -0.01125,0.0357 -0.0057,0.003 -0.01405,0.003 -0.02087,7.8e-4 z m 7.131783,1.066111 c -0.01235,0.008 -0.02925,0.006 -0.03801,-0.006 L 6.269887,8.7423105 c -0.009,-0.012 -0.006,-0.0286 0.0063,-0.037 0.01218,-0.008 0.02931,-0.006 0.03816,0.006 l 2.802537,3.8221705 c 0.0091,0.012 0.0062,0.0291 -0.0063,0.0376 z M 1.151298,9.8694605 c -0.0062,-0.002 -0.01157,-0.009 -0.01465,-0.0146 l -0.57191101,-1.29155 c -0.006,-0.0135 4.27e-4,-0.0289 0.01459,-0.0348 0.01382,-0.005 0.02984,9.4e-4 0.0358,0.014 L 1.18767,9.8335305 c 0.006,0.0138 -3.62e-4,0.0296 -0.01469,0.0352 -0.0068,0.003 -0.01438,0.002 -0.02127,7.6e-4 z m 3.751374,-1.39953 c -0.11021,-0.0119 -0.08666,-0.0298 -0.08666,-0.0298 0,0 -0.06602,0.0158 0.222262,-0.32742 0.288364,-0.34316 1.527183,-1.04233 1.891127,-1.09944 0.36396,-0.0572 0.442989,0.23634 0.442989,0.23634 0,0 0.171883,0.25022 -0.106807,0.4923 -0.278552,0.24212 -1.610065,0.74023 -2.057161,0.73957 -0.111786,1.2e-4 -0.192284,-0.003 -0.250064,-0.007 -0.02157,-10e-4 -0.03996,-0.003 -0.05581,-0.004 z m 0.635642,-1.31 c -0.01477,0.003 -0.02988,-0.005 -0.03358,-0.0197 l -1.194814,-4.5456 c -0.0034,-0.0142 0.0053,-0.0285 0.01947,-0.0321 0.01478,-0.003 0.02958,0.006 0.03318,0.0196 l 1.195302,4.54496 c 0.0046,0.0143 -0.0044,0.0291 -0.01955,0.0328 z"
         sodipodi:nodetypes="cccccscccsscccccccccsscccccsssccccccccccccccccccccccsccccccccsccscccscccccss" />
      <path
         id="path3156-2-5"
         style="font-style:italic;font-variant:normal;font-weight:900;font-stretch:normal;font-size:6.13982px;line-height:1.25;font-family:'Helvetica Now Text';-inkscape-font-specification:'Helvetica Now Text Heavy Italic';letter-spacing:0px;word-spacing:0px;display:inline;fill:#d40000;fill-opacity:1;stroke:none;stroke-width:0.228084"
         d="m 26.731428,9.5835905 h 1.71255 l -0.79313,2.6145505 h -0.84215 l 0.0755,-0.426871 q -0.49581,0.580271 -1.25882,0.580271 -0.71215,0 -1.07875,-0.553591 -0.36659,-0.55359 -0.25418,-1.46068 0.0405,-0.32681 0.1481,-0.6936495 0.3269,-1.08718 1.02466,-1.7008 0.69128,-0.60695 1.57299,-0.60695 0.7291,0 1.15331,0.45355 0.41774,0.46021 0.32434,1.21389 h -1.23779 q -0.0196,-0.48022 -0.49437,-0.48022 -0.35608,0 -0.64444,0.32015 -0.28754,0.31348 -0.46766,0.90042 -0.0921,0.2868095 -0.13009,0.5936095 -0.0529,0.42687 0.0806,0.62696 0.13912,0.20009 0.47824,0.20009 0.54823,0 0.84209,-0.54692 h -0.52563 z" />
      <path
         id="path1-43"
         style="font-style:italic;font-variant:normal;font-weight:900;font-stretch:normal;font-size:6.13982px;line-height:1.25;font-family:'Helvetica Now Text';-inkscape-font-specification:'Helvetica Now Text Heavy Italic';letter-spacing:0px;word-spacing:0px;fill:#d40000;fill-opacity:1;stroke:none;stroke-width:0.228084"
         d="m 20.600209,7.4491105 -1.447973,4.7490605 h 1.266072 l 0.882117,-2.8938805 0.448551,2.8938805 h 0.240296 0.632519 0.633037 L 24.702801,7.4491105 H 23.436729 L 22.429555,10.75382 21.989272,7.4491105 h -0.12299 -0.853178 z" />
      <path
         d="m 18.111128,12.198141 h -1.26604 l 1.44761,-4.7488805 h 1.26604 z"
         style="font-style:italic;font-variant:normal;font-weight:900;font-stretch:normal;font-size:6.13982px;line-height:1.25;font-family:'Helvetica Now Text';-inkscape-font-specification:'Helvetica Now Text Heavy Italic';letter-spacing:0px;word-spacing:0px;fill:#d40000;fill-opacity:1;stroke:none;stroke-width:0.228084"
         id="path1-0-8" />
      <path
         id="path1-0-7-5"
         style="font-style:italic;font-variant:normal;font-weight:900;font-stretch:normal;font-size:6.13982px;line-height:1.25;font-family:'Helvetica Now Text';-inkscape-font-specification:'Helvetica Now Text Heavy Italic';letter-spacing:0px;word-spacing:0px;fill:#d40000;fill-opacity:1;stroke:none;stroke-width:0.228084"
         d="m 10.069586,7.4491105 1.447974,4.7490605 h 1.266072 0.01757 l 0.819072,-2.6871705 0.819071,2.6871705 h 1.266073 L 17.152875,7.4491105 H 15.886802 L 15.072382,10.1213 14.257961,7.4491105 h -0.0093 -1.256771 -0.0093 L 12.159384,10.15023 11.335662,7.4491105 Z" />
    </g>
  </g>
</svg>
